<?xml version="1.0" encoding="utf-8"?>
<!-- Generator: Adobe Illustrator 26.3.1, SVG Export Plug-In . SVG Version: 6.00 Build 0)  -->
<svg version="1.1" id="Layer_1" xmlns="http://www.w3.org/2000/svg" xmlns:xlink="http://www.w3.org/1999/xlink" x="0px" y="0px"
	 viewBox="0 0 900 600" style="enable-background:new 0 0 900 600;" xml:space="preserve">
<style type="text/css">
	.st0{fill:none;stroke:#E1E4E5;stroke-width:4.918;}
	.st1{fill:none;stroke:#E1E4E5;stroke-width:15.184;stroke-linecap:round;stroke-linejoin:round;}
	.st2{fill:#BF0D3E;}
	.st3{fill:none;stroke:#FFFFFF;stroke-width:10.287;stroke-linecap:round;stroke-linejoin:round;}
	.st4{fill:none;stroke:#BF0D3E;stroke-width:17.405;stroke-linecap:round;stroke-linejoin:round;}
	.st5{fill-rule:evenodd;clip-rule:evenodd;fill:#BF0D3E;}
	.st6{fill-rule:evenodd;clip-rule:evenodd;fill:#E1E4E5;}
	.st7{fill:#E1E4E5;}
</style>
<path class="st0" d="M349,256.6v-122c0-26,21.1-47.1,47.1-47.1h235.7c26,0,47.1,21.1,47.1,47.1v330c0,26-21.1,47.1-47.1,47.1h-130"
	/>
<path class="st1" d="M606.4,144.8h-92.5 M606.4,259.8h-92.5 M606.4,202.6h-92.5 M606.4,318.2h-92.5 M606.4,375.5h-92.5 M606.4,433.8
	h-92.5"/>
<path class="st2" d="M431.2,135.4L431.2,135.4c28.5,0,51.6,23.1,51.6,51.6l0,0c0,28.5-23.1,51.6-51.6,51.6l0,0
	c-28.5,0-51.6-23.1-51.6-51.6l0,0C379.5,158.6,402.7,135.4,431.2,135.4z"/>
<path class="st3" d="M448,177.8L425.4,200l-13.5-13.4"/>
<path class="st4" d="M408.1,338.8v-25.7c0-14.2-11.5-25.7-25.8-25.7h-56c-14.2,0-25.8,11.5-25.8,25.7v25.7"/>
<path class="st5" d="M444.5,506.5H263.9c-14.2,0-25.8-11.5-25.8-25.8v-89l68.1,45l0,0c6.1,4,13,6.5,20.2,7.4
	c5.6,8.6,15.2,14.2,26.2,14.2h2c10.9,0,20.6-5.6,26.2-14.1c7.6-0.7,14.9-3.3,21.3-7.5l0,0l68.1-45v89
	C470.3,494.9,458.7,506.5,444.5,506.5L444.5,506.5z M328.6,407.1c5.7-7,14.4-11.4,24.2-11.4h2c9.9,0,18.6,4.6,24.4,11.7
	c1-0.3,2-0.7,2.9-1.3l0,0l84.1-55.5c-4.6-7.1-12.6-11.7-21.6-11.7H263.9c-9.1,0-17,4.7-21.6,11.7l84.1,55.5l0,0
	C327.1,406.5,327.8,406.8,328.6,407.1L328.6,407.1z"/>
<path class="st2" d="M238.2,391.6l4.8-7.3c-4-2.6-9.4-1.5-12.1,2.5c-0.9,1.4-1.4,3.1-1.4,4.8H238.2z M306.3,436.6l4.8-7.3l0,0
	L306.3,436.6z M306.3,436.6l-4.8,7.3h0L306.3,436.6L306.3,436.6z M326.5,444l7.3-4.7c-1.4-2.2-3.7-3.6-6.2-3.9L326.5,444L326.5,444z
	 M380.8,444.1l-0.8-8.7c-2.6,0.3-5,1.7-6.4,3.9L380.8,444.1z M402.1,436.6l4.8,7.3l0,0L402.1,436.6z M402.1,436.6l-4.8-7.3l0,0
	L402.1,436.6z M470.3,391.6h8.7c0-3.2-1.8-6.1-4.6-7.7c-2.8-1.5-6.2-1.4-8.9,0.4L470.3,391.6z M328.6,407.1l-3,8.2
	c3.5,1.3,7.4,0.2,9.7-2.6L328.6,407.1z M379,407.4l-6.8,5.5c2.2,2.7,5.7,3.9,9.1,2.9L379,407.4z M382,406.1l-4.8-7.3l0,0L382,406.1
	L382,406.1z M382,406.1l4.8,7.3h0L382,406.1z M466.1,350.5l4.8,7.3c4-2.6,5.1-8,2.5-12L466.1,350.5L466.1,350.5z M242.3,350.5
	l-7.3-4.8c-2.6,4-1.5,9.4,2.5,12L242.3,350.5z M326.5,406.1l-4.8,7.3l0,0L326.5,406.1z M326.5,406.1l4.8-7.3l0,0L326.5,406.1
	L326.5,406.1z M263.9,515.2h180.5v-17.4H263.9L263.9,515.2L263.9,515.2z M229.5,480.7c0,19.1,15.4,34.5,34.5,34.5v-17.4
	c-9.4,0-17.1-7.6-17.1-17.1L229.5,480.7L229.5,480.7z M229.5,391.6v89h17.4v-89L229.5,391.6L229.5,391.6z M311.1,429.3l-68.1-45
	l-9.6,14.5l68.1,45L311.1,429.3z M311.1,429.3L311.1,429.3l-9.6,14.5l0,0L311.1,429.3z M327.5,435.4c-5.9-0.7-11.5-2.8-16.4-6
	l-9.6,14.5c7.2,4.7,15.4,7.8,23.9,8.8L327.5,435.4z M352.7,449.6c-7.9,0-14.9-4.1-18.9-10.3l-14.6,9.5c7.1,10.9,19.5,18.2,33.5,18.2
	V449.6z M354.7,449.6h-2V467h2V449.6z M373.5,439.4c-4,6.2-11,10.2-18.9,10.2V467c14,0,26.3-7.2,33.4-18L373.5,439.4z M397.3,429.3
	c-5.2,3.4-11.2,5.5-17.4,6.1l1.7,17.3c9-0.9,17.7-3.9,25.3-8.9L397.3,429.3z M397.3,429.3L397.3,429.3l9.6,14.5l0,0L397.3,429.3z
	 M465.5,384.4l-68.1,45l9.6,14.5l68.1-45L465.5,384.4L465.5,384.4z M479,480.7v-89h-17.4v89H479z M444.5,515.2
	c19.1,0,34.5-15.4,34.5-34.5h-17.4c0,9.4-7.6,17.1-17.1,17.1L444.5,515.2L444.5,515.2z M335.3,412.7c4.2-5,10.4-8.2,17.4-8.2V387
	c-12.4,0-23.6,5.7-30.9,14.6L335.3,412.7z M352.7,404.4h2V387h-2V404.4z M354.7,404.4c7.1,0,13.4,3.3,17.6,8.4l13.6-10.9
	c-7.3-9.1-18.6-14.9-31.1-14.9L354.7,404.4L354.7,404.4z M377.2,398.8c-0.1,0.1-0.3,0.2-0.4,0.2l4.6,16.8c1.9-0.5,3.7-1.4,5.4-2.5
	L377.2,398.8z M377.2,398.8L377.2,398.8l9.6,14.5l0,0L377.2,398.8L377.2,398.8z M461.3,343.3l-84.1,55.5l9.6,14.5l84.1-55.5
	L461.3,343.3z M444.5,347.5c6,0,11.3,3.1,14.3,7.8l14.6-9.5c-6.1-9.4-16.8-15.7-28.9-15.7V347.5z M263.9,347.5h180.5v-17.4H263.9
	L263.9,347.5L263.9,347.5z M249.6,355.3c3.1-4.7,8.3-7.8,14.3-7.8v-17.4c-12.1,0-22.8,6.3-28.9,15.7L249.6,355.3L249.6,355.3z
	 M331.2,398.8l-84.1-55.5l-9.6,14.5l84.1,55.5L331.2,398.8z M331.3,398.8L331.3,398.8l-9.6,14.5l0,0L331.3,398.8z M331.6,399
	c-0.1,0-0.2-0.1-0.3-0.2l-9.6,14.5c1.2,0.8,2.5,1.5,3.9,2L331.6,399z"/>
<path class="st6" d="M270.6,281.4h-3.2c-0.8,0-1.4,0.6-1.4,1.4v3.2c0,0.8,0.6,1.4,1.4,1.4h3.2c0.8,0,1.4-0.6,1.4-1.4v-3.2
	C272,282,271.3,281.4,270.6,281.4C270.6,281.4,270.6,281.4,270.6,281.4z M259.3,281.4h-3.2c-0.8,0-1.4,0.6-1.4,1.4v3.2
	c0,0.8,0.6,1.4,1.4,1.4h3.2c0.8,0,1.4-0.6,1.4-1.4v-3.2C260.7,282,260.1,281.4,259.3,281.4z M248.1,281.4h-3.2
	c-0.8,0-1.4,0.6-1.4,1.4v3.2c0,0.8,0.6,1.4,1.4,1.4h3.2c0.8,0,1.4-0.6,1.4-1.4v-3.2C249.5,282,248.9,281.4,248.1,281.4
	C248.1,281.4,248.1,281.4,248.1,281.4z M236.8,281.4h-3.2c-0.8,0-1.4,0.6-1.4,1.4v3.2c0,0.8,0.6,1.4,1.4,1.4h3.2
	c0.8,0,1.4-0.6,1.4-1.4v-3.2C238.3,282,237.6,281.4,236.8,281.4z M225.6,281.4h-3.2c-0.8,0-1.4,0.6-1.4,1.4v3.2
	c0,0.8,0.6,1.4,1.4,1.4h3.2c0.8,0,1.4-0.6,1.4-1.4v-3.2C227,282,226.4,281.4,225.6,281.4z M258.9,293.6h-3.2c-0.8,0-1.4,0.6-1.4,1.4
	v3.2c0,0.8,0.6,1.4,1.4,1.4h3.2c0.8,0,1.4-0.6,1.4-1.4v-3.2C260.3,294.3,259.7,293.6,258.9,293.6
	C258.9,293.6,258.9,293.6,258.9,293.6L258.9,293.6z M247.7,293.6h-3.2c-0.8,0-1.4,0.6-1.4,1.4v3.2c0,0.8,0.6,1.4,1.4,1.4h3.2
	c0.8,0,1.4-0.6,1.4-1.4v-3.2C249.1,294.3,248.5,293.6,247.7,293.6C247.7,293.6,247.7,293.6,247.7,293.6L247.7,293.6z M236.4,293.6
	h-3.2c-0.8,0-1.4,0.6-1.4,1.4v3.2c0,0.8,0.6,1.4,1.4,1.4h3.2c0.8,0,1.4-0.6,1.4-1.4v-3.2C237.8,294.3,237.2,293.6,236.4,293.6
	L236.4,293.6z M248.1,268.2h-3.2c-0.8,0-1.4,0.6-1.4,1.4v3.2c0,0.8,0.6,1.4,1.4,1.4h3.2c0.8,0,1.4-0.6,1.4-1.4v-3.2
	C249.5,268.9,248.9,268.2,248.1,268.2C248.1,268.2,248.1,268.2,248.1,268.2z M236.8,268.2h-3.2c-0.8,0-1.4,0.6-1.4,1.4v3.2
	c0,0.8,0.6,1.4,1.4,1.4h3.2c0.8,0,1.4-0.6,1.4-1.4v-3.2C238.3,268.9,237.6,268.2,236.8,268.2z"/>
<circle class="st2" cx="273.7" cy="216" r="7.2"/>
<circle class="st7" cx="297" cy="158.7" r="8.5"/>
<circle class="st2" cx="648.8" cy="344" r="4.3"/>
<circle class="st2" cx="651.5" cy="226.9" r="7.2"/>
<circle class="st7" cx="647.1" cy="409.5" r="2.6"/>
<circle class="st7" cx="648.6" cy="295.8" r="4.6"/>
<circle class="st7" cx="647.4" cy="185.8" r="3.6"/>
<path class="st7" d="M316.6,186.6h0.2c0.9,13.3,10.8,13.5,10.8,13.5s-10.9,0.2-10.9,15.6c0-15.4-10.9-15.6-10.9-15.6
	S315.6,199.9,316.6,186.6z"/>
</svg>
